<?xml version="1.0" encoding="UTF-8"?>
<svg id="Layer_1" xmlns="http://www.w3.org/2000/svg" version="1.1" viewBox="0 0 200 85">
  <!-- Generator: Adobe Illustrator 29.8.1, SVG Export Plug-In . SVG Version: 2.1.1 Build 2)  -->
  <defs>
    <style>
      .st0 {
        fill: #fff;
        fill-rule: evenodd;
      }
    </style>
  </defs>
  <path class="st0" d="M124.76,21.32l12.53,42.24h-11.39l-3.37-12.68-.29-1.08c-1.89.57-4,1.24-5.85,1.83-1.2.38-2.41.86-3.49,1.5-1.62.96-2.51,2.55-3.08,4.31-.64,1.99-1.29,4.12-1.9,6.12h-22.32c-.83-2.72-1.46-4.75-1.89-6.09-.21-.64-.46-1.27-.77-1.84l-.62-.96c-.45-.59-1-1.11-1.69-1.51-1.08-.64-2.28-1.11-3.49-1.5-2.34-.75-4.7-1.46-7.12-2.19v14.09h-10.88V21.31h10.88v12.63h0v1.36c2.41-.73,4.77-1.44,7.11-2.19,1.2-.38,2.41-.86,3.49-1.5,1.62-.96,2.51-2.55,3.08-4.31.64-2,1.24-3.98,1.86-5.99h11.2c-.57,1.84-1.12,3.61-1.65,5.32-.69,2.23-1.36,4.47-2.07,6.69-.08.25-.17.5-.27.75l-6.63-5.43c-.22-.15-.48.11-.34.33l5.48,7.6c-.38.41-.81.77-1.32,1.07-1.08.64-2.28,1.11-3.49,1.5-3.47,1.11-6.97,2.15-10.65,3.27,3.68,1.12,7.18,2.15,10.65,3.27,1.01.32,2.01.71,2.95,1.2l-4.17,5.31c-.17.21.08.49.31.36l6.19-3.72c.57.79.98,1.7,1.29,2.66.71,2.22,1.39,4.46,2.07,6.69.51,1.64,1.07,3.52,1.62,5.28.1-.31.23-.68.32-.99l.3-.97h0c.35-1.14.69-2.25,1.04-3.36.69-2.23,1.36-4.47,2.07-6.69.36-1.13.86-2.18,1.59-3.05l6.57,5.85c.21.17.49-.08.36-.31l-4.75-7.18c.89-.45,1.84-.81,2.79-1.12,3.09-.99,9.17-2.8,13.07-3.98v-.04s-3.35-12.39-3.35-12.39l-1.05,4.13s0,0,0,0l-1.94,7.65c-.36-.11-.72-.22-1.08-.33-1.89-.59-5.85-1.85-8.46-2.86l11.89-12.39c.17-.21-.08-.49-.31-.36l-10.58,7.72,3.32-11.45h16.19,0ZM179.63,42.42c-.03,12.89-9.25,22.06-22.17,22.06-12.9,0-22.12-9.23-22.12-22.11,0-12.9,9.17-22.02,22.1-22.02h.07c13.02.03,22.15,9.15,22.12,22.07ZM140.58,32.01h0c.47,0,.84-.38.84-.85,0-.47-.38-.84-.85-.84-.47,0-.84.38-.84.85,0,.46.38.84.84.84ZM141.85,37.06c0-.47-.38-.84-.85-.84-.47,0-.84.38-.84.85s.38.84.84.84h0c.47,0,.84-.38.84-.85h0ZM168.76,42.55c.11-7.47-4.25-12.4-11.07-12.5-7.08-.1-11.51,4.69-11.47,12.42.04,7.55,4.39,12.36,11.2,12.37h.04c6.77,0,11.18-4.8,11.29-12.3h0ZM55.92,49.87c0,2.49-.42,4.68-1.26,6.5-.83,1.81-2.04,3.33-3.59,4.52-1.56,1.19-3.51,2.1-5.79,2.7-2.3.6-4.94.9-7.85.9-6.32,0-11.96-1.03-16.76-3.05l3.35-8.93,4.74,1.06,1.94.4c.7.14,1.4.27,2.1.38.7.11,1.36.21,1.99.29.63.08,1.2.12,1.69.12.77,0,1.51-.03,2.22-.08.73-.05,1.39-.18,1.95-.37.59-.2,1.08-.5,1.44-.89.39-.42.59-.98.59-1.67,0-.85-.43-1.56-1.28-2.12-.76-.5-1.72-.96-2.85-1.35-1.12-.39-2.35-.75-3.68-1.06-1.3-.31-2.53-.65-3.68-1.02-1.55-.44-3.02-1.04-4.35-1.8-1.33-.75-2.49-1.65-3.45-2.69-.96-1.03-1.72-2.21-2.26-3.52-.54-1.3-.81-2.75-.81-4.32,0-9.1,5.89-13.52,18.02-13.52,5.61,0,10.91,1.05,15.76,3.12l-3.43,8.68-1.39-.32c-3.49-.99-13.45-3.55-15.12-.98l-.04.06c-.42.62-.53,1.31-.32,2.06,0,.04.07.22.09.27.15.41.41.78.8,1.12,0,0,0,0,.01.01h0c.66.57,1.67,1.04,3.03,1.42,6.1,1.9,10.57,3.12,13.63,5.51,3.01,2.35,4.54,5.24,4.54,8.57h0ZM111.56,34.32c0-.47-.38-.84-.85-.84-.47,0-.84.38-.84.85s.38.84.84.84h0c.47,0,.84-.38.84-.85h0ZM92.4,26.22c0,.46.38.84.84.84h0c.47,0,.84-.38.84-.85,0-.47-.38-.84-.85-.84-.47,0-.84.38-.84.85h0ZM73.5,37.27c.47,0,.84-.38.84-.85s-.38-.84-.85-.84c-.47,0-.84.38-.84.85s.38.84.84.84h0,0ZM75.19,44.85c0-.47-.38-.84-.85-.84s-.84.38-.84.85.38.84.84.84h0c.47,0,.84-.38.84-.85ZM81.16,50.58c0-.47-.38-.84-.85-.84-.47,0-.84.38-.84.85s.38.84.84.84h0c.47,0,.84-.38.84-.85h0ZM85.23,47.36c0,.46.38.84.84.84h0c.47,0,.84-.38.84-.85s-.38-.84-.85-.84c-.47,0-.84.38-.84.85h0ZM88.5,59.75c0-.47-.38-.84-.85-.84-.47,0-.84.38-.84.85,0,.46.38.84.84.84h0c.47,0,.84-.38.84-.85ZM91.2,58.27c0-.47-.38-.84-.85-.84-.47,0-.84.38-.84.85s.38.84.84.84h0c.47,0,.84-.38.84-.85h0Z"/>
</svg>